<svg xmlns="http://www.w3.org/2000/svg" width="18" height="18" viewBox="0 0 18 18">
    <path fill="#575757" fill-rule="evenodd" d="M12.893 7.024c0-1.64-.576-3.032-1.729-4.18-1.154-1.148-2.539-1.722-4.158-1.722-1.62 0-3.006.574-4.158 1.722-1.154 1.148-1.73 2.54-1.73 4.18 0 1.64.576 3.032 1.73 4.18C4 12.352 5.387 12.926 7.006 12.926c1.619 0 3.004-.574 4.158-1.722 1.153-1.148 1.73-2.54 1.73-4.18m4.91 10.783c-.27.257-.53.257-.787 0l-5.452-5.48c-1.304 1.149-2.83 1.721-4.577 1.721-1.934 0-3.581-.685-4.944-2.054C.681 10.624 0 8.968 0 7.024s.681-3.6 2.044-4.97C3.407.685 5.054 0 6.988 0c1.934 0 3.581.685 4.944 2.055 1.364 1.37 2.045 3.025 2.045 4.97 0 1.685-.536 3.184-1.608 4.495l5.416 5.515c.28.258.286.514.018.772"/>
</svg>
